<?xml version="1.0" encoding="utf-8"?>
<!-- Generator: Adobe Illustrator 25.2.0, SVG Export Plug-In . SVG Version: 6.00 Build 0)  -->
<svg version="1.1" xmlns="http://www.w3.org/2000/svg" xmlns:xlink="http://www.w3.org/1999/xlink" x="0px" y="0px"
	 viewBox="0 0 150 150" style="enable-background:new 0 0 150 150;" xml:space="preserve">
<style type="text/css">
	.st0{display:none;}
	.st1{fill:#FF7A59;}
	.st2{fill:#1797C0;}
	.st3{fill:#FFFFFF;}
	.st4{fill-rule:evenodd;clip-rule:evenodd;fill:#FFFFFF;}
	.st5{clip-path:url(#SVGID_3_);fill:#FBBC05;}
	.st6{clip-path:url(#SVGID_5_);fill:#EA4335;}
	.st7{clip-path:url(#SVGID_7_);fill:#34A853;}
	.st8{clip-path:url(#SVGID_9_);fill:#4285F4;}
	.st9{fill:#65C99C;}
	.st10{fill:#E7D94C;}
	.st11{fill:#397FC4;}
	.st12{fill:#9F7FFF;}
	.st13{fill:url(#SVGID_10_);}
	.st14{fill:#E2D8FF;}
	.st15{fill:#0DBDFF;}
	.st16{fill:#008373;}
	.st17{clip-path:url(#SVGID_12_);}
	.st18{fill:#DBDBDB;}
	.st19{fill:url(#SVGID_13_);}
	.st20{fill:#1877F2;}
	.st21{fill:#FBBC04;}
	.st22{fill:#34A853;}
	.st23{fill:#3B80EF;}
	.st24{fill:#FBBD04;}
	.st25{fill:#438EDC;}
	.st26{fill:#34A952;}
	.st27{fill:#4285F4;}
	.st28{fill:#F9AB00;}
	.st29{fill:#E37400;}
	.st30{fill:#1E8E3E;}
	.st31{fill:#5BB974;}
	.st32{fill:#81C995;}
	.st33{fill:#4989F5;}
	.st34{fill:url(#SVGID_14_);}
	.st35{fill:#3C4BA6;}
	.st36{fill:#7BABF7;}
	.st37{fill:#3F51B5;}
	.st38{fill-rule:evenodd;clip-rule:evenodd;fill:#709BE0;}
	.st39{fill-rule:evenodd;clip-rule:evenodd;fill:#3C4BA6;}
	.st40{fill:#1A73E8;}
	.st41{fill:#669DF3;}
	.st42{fill:url(#SVGID_15_);}
	.st43{fill:url(#SVGID_16_);}
	.st44{fill:#0077B7;}
	.st45{fill:#3D3D3D;}
	.st46{fill:#F25022;}
	.st47{fill:#7FBA00;}
	.st48{fill:#00A4EF;}
	.st49{fill:#FFB900;}
	.st50{clip-path:url(#SVGID_18_);}
	.st51{fill-rule:evenodd;clip-rule:evenodd;fill:#24ABE2;}
	.st52{fill:#FF5B00;}
	.st53{clip-path:url(#SVGID_19_);fill:#FFFFFF;}
	.st54{clip-path:url(#SVGID_19_);fill:#E60023;}
	.st55{fill:#B92B27;}
	.st56{fill:#FF4500;}
	.st57{fill-rule:evenodd;clip-rule:evenodd;fill:#635BFF;}
	.st58{fill:#004B7A;}
	.st59{fill:#001935;}
	.st60{fill:#1DA1F2;}
	.st61{fill:#FEFEFE;}
	.st62{fill:#00B8EE;}
	.st63{fill:#C354D8;}
	.st64{fill:#70D200;}
	.st65{fill:#FEB600;}
	.st66{fill:#E02826;}
	.st67{fill:#1AB7EA;}
	.st68{fill-rule:evenodd;clip-rule:evenodd;fill:#4680C2;}
	.st69{fill:#FF0000;}
	.st70{fill:url(#SVGID_20_);}
	.st71{fill:#E6E3CC;}
	.st72{fill:#D4DBEF;}
	.st73{fill:#58409B;}
	.st74{fill:#29B5E8;}
	.st75{fill:none;stroke:#29B5E8;stroke-width:1.4412;stroke-miterlimit:10;}
	.st76{fill:none;stroke:#29B5E8;stroke-width:1.4412;stroke-linecap:round;stroke-linejoin:round;stroke-miterlimit:10;}
	.st77{fill-rule:evenodd;clip-rule:evenodd;fill:#12AE3A;}
	.st78{fill:#080738;}
	.st79{fill:#0037FF;}
	.st80{fill:#FFFC00;}
	.st81{fill:#030303;}
	.st82{fill:#95BF47;}
	.st83{fill:#5E8E3E;}
	.st84{fill:#388AED;}
	.st85{fill:#F7F9FA;}
	.st86{fill:#14CCB2;}
	.st87{fill:#0E1621;}
	.st88{fill-rule:evenodd;clip-rule:evenodd;fill:#FE2C55;}
	.st89{fill-rule:evenodd;clip-rule:evenodd;}
	.st90{fill-rule:evenodd;clip-rule:evenodd;fill:#25F4EE;}
	.st91{fill:#003366;}
	.st92{fill:#005B9E;}
	.st93{fill:#F27421;}
	.st94{fill:url(#SVGID_21_);}
	.st95{fill:#7B0099;}
	.st96{opacity:0.12;fill:#420000;enable-background:new    ;}
	.st97{fill:url(#SVGID_22_);}
	.st98{fill:#253B80;}
	.st99{fill:#179BD7;}
	.st100{fill:#222D65;}
	.st101{fill:#F26322;}
	.st102{fill:#009BDF;}
	.st103{fill:#007BD0;}
	.st104{fill-rule:evenodd;clip-rule:evenodd;fill:#FF6600;}
	.st105{fill-rule:evenodd;clip-rule:evenodd;fill:#E74030;}
	.st106{fill-rule:evenodd;clip-rule:evenodd;fill:#FAB418;}
	.st107{fill-rule:evenodd;clip-rule:evenodd;fill:#DE0732;}
	.st108{fill-rule:evenodd;clip-rule:evenodd;fill:#DE0733;}
	.st109{fill-rule:evenodd;clip-rule:evenodd;fill:#CC1D46;}
	.st110{fill:#F86252;}
	.st111{fill-rule:evenodd;clip-rule:evenodd;fill:#EA4335;}
	.st112{fill-rule:evenodd;clip-rule:evenodd;fill:#FBBC04;}
	.st113{fill-rule:evenodd;clip-rule:evenodd;fill:#34A853;}
	.st114{fill-rule:evenodd;clip-rule:evenodd;fill:#4285F4;}
	.st115{fill:#FF5600;}
</style>
<g id="Layer_2" class="st0">
</g>
<g id="Layer_1">
	<g id="gZpoN4_1_">
		<g>
			<path class="st115" d="M71.3,30.1c11.1,0,22.2-0.1,33.3,0c7.5,0.1,14.7,1.7,21.4,5.1c12.7,6.4,20.1,16.9,22.5,30.8
				c2.4,13.6-0.8,25.9-9.4,36.7c-7.6,9.5-17.7,14.7-29.6,16.4c-12.1,1.7-24.1,0.3-35.8-2.5c-13.8-3.3-26.8-8.6-38.9-16.1
				c-2.9-1.8-4.9-3.1-7.7-5.4c-0.6-0.5-1.8-1.5-2.3-2.2c-1.1-1.5-0.6-3.2,1.3-3.2c0.9,0,1.6,0,2.4,0c6.6,0,13.2,0,19.8,0
				c0.8,0,1.6,0,2.3-0.1c0.9-0.1,1.9-0.4,2.2-1.2c0.4-1.3-0.4-2-1.3-2.5c-0.6-0.4-1.4-0.7-2-1.1c-9.1-5.1-18.2-10-27.2-15.3
				c-6.3-3.7-12.1-8.1-17.6-13c-1.1-1-2.3-2.1-3.2-3.4c-1.3-1.8-0.5-3.7,1.7-3.8c1,0,1.8,0,2.7,0c15.9,0,31.9,0,47.8,0
				c1,0,1.7,0,2.6-0.1c0.7-0.1,1.5-0.9,1.6-1.4c0.1-0.6-0.1-1.5-0.7-2c-0.7-0.6-1.5-0.9-2.4-1.3c-5.7-2.8-11.4-5.5-17-8.4
				c-1.5-0.7-2.7-1.5-3.8-2.7c-0.8-0.8-1.1-1.8-0.8-2.5c0.3-0.8,0.9-0.9,1.9-1c0.8-0.1,1.5-0.1,2.3-0.1C48.7,30.1,60,30.1,71.3,30.1
				C71.3,30.1,71.3,30.1,71.3,30.1z M105.4,44c-16.2,0-30.9,12.5-30.9,30.3c0,17.1,13.2,30.7,30.4,30.8
				c17.5,0.1,30.6-13.5,30.6-30.5C135.6,56.8,121.9,44.3,105.4,44z"/>
			<path class="st115" d="M128.6,73.7c-0.2-11.3-9.9-21.3-20.8-22c-4.4-0.3-5.6-0.4-5.3,5.3c0.1,1.9,0.7,2.5,2.6,3
				c1,0.2,2.1,0.3,3.2,0.6c6.2,1.7,9.5,6,10.8,12.1c1,4.7,1.5,5.1,6.5,4.7c0.4,0,0.8-0.1,1.2-0.1c1.1-0.2,1.7-0.8,1.9-1.9
				C128.6,74.6,128.6,73.9,128.6,73.7z"/>
			<path class="st115" d="M128.6,73.7c0,0.2,0,0.9-0.1,1.5c-0.1,1.1-0.8,1.7-1.9,1.9c-0.4,0.1-0.8,0.1-1.2,0.1
				c-4.9,0.4-5.5,0.1-6.5-4.7c-1.3-6.1-4.6-10.4-10.8-12.1c-1-0.3-2.1-0.3-3.2-0.6c-1.9-0.5-2.5-1.1-2.6-3c-0.3-5.7,0.9-5.6,5.3-5.3
				C118.7,52.4,128.4,62.4,128.6,73.7z"/>
		</g>
	</g>
</g>
</svg>
